<svg width="332" height="103" viewBox="0 0 332 103" fill="none" xmlns="http://www.w3.org/2000/svg">
<path d="M84.7821 84.6693C83.5744 85.877 82.1406 86.835 80.5626 87.4886C78.9847 88.1422 77.2934 88.4786 75.5854 88.4786C73.8774 88.4786 72.1862 88.1422 70.6082 87.4886C69.0302 86.835 67.5965 85.877 66.3888 84.6693L34.0307 52.3119L52.4453 33.8978L84.768 66.2198C87.2071 68.6589 88.5774 71.9669 88.5773 75.4163C88.5773 78.8656 87.2071 82.1737 84.7679 84.6127L84.7821 84.6693Z" fill="url(#paint0_linear)"/>
<path d="M84.7882 3.83336C85.996 5.04105 86.954 6.47479 87.6076 8.05271C88.2612 9.63063 88.5976 11.3218 88.5976 13.0298C88.5976 14.7377 88.2612 16.4289 87.6076 18.0068C86.954 19.5848 85.996 21.0185 84.7882 22.2262L52.43 54.5834L34.0154 36.1694L66.3382 3.84751C68.7774 1.40847 72.0855 0.0382248 75.5349 0.0382253C78.9844 0.0382256 82.2925 1.40847 84.7316 3.84751L84.7882 3.83336Z" fill="url(#paint1_linear)"/>
<path d="M61.8629 8.30322L61.7529 8.4833C61.0025 9.71384 47.9764 29.3624 62.8034 44.1789L80.3916 61.8267C79.3911 61.3965 58.0611 48.901 44.3747 62.627L22.3644 84.6367C19.9162 87.0834 16.5965 88.4578 13.1351 88.4578C9.67375 88.4578 6.35405 87.0834 3.90578 84.6367C2.68673 83.4276 1.71915 81.9892 1.05885 80.4043C0.39855 78.8194 0.0585938 77.1195 0.0585938 75.4026C0.0585938 73.6857 0.39855 71.9858 1.05885 70.4009C1.71915 68.8161 2.68673 67.3776 3.90578 66.1686L5.0163 65.0581L61.8629 8.30322Z" fill="#008045"/>
<path d="M40.5245 22.0294C40.5245 22.0294 22.516 40.9777 3.50712 22.0294C-1.34515 17.1773 -1.13505 9.11377 3.96734 4.02154C9.05972 -1.0807 17.1335 -1.28079 21.9758 3.57134L40.5245 22.0294Z" fill="#008045"/>
<path d="M122.285 16.7473H116.845V41.1673H110.715V16.7473H107.255V11.7973H110.715V9.71733C110.715 6.33733 111.612 3.87399 113.405 2.32733C115.205 0.787326 118.025 0.00732422 121.855 0.00732422V5.07733C120.015 5.07733 118.715 5.41733 117.965 6.07733C117.545 6.57042 117.229 7.14371 117.036 7.7625C116.844 8.38129 116.779 9.03271 116.845 9.67732V11.7573H122.285V16.7473Z" fill="white"/>
<path d="M153.305 11.7974V41.1674H147.225V37.7074C146.217 38.9437 144.928 39.9209 143.465 40.5574C141.911 41.2353 140.231 41.5761 138.535 41.5574C136.379 41.5936 134.246 41.099 132.325 40.1174C130.492 39.1561 128.988 37.6692 128.005 35.8474C126.905 33.7465 126.364 31.3978 126.435 29.0274V11.7974H132.435V28.1574C132.305 30.3402 133.022 32.4891 134.435 34.1574C135.13 34.8718 135.97 35.4296 136.897 35.7935C137.825 36.1573 138.82 36.3189 139.815 36.2674C140.815 36.3174 141.814 36.1553 142.746 35.7916C143.679 35.428 144.524 34.871 145.225 34.1574C146.643 32.4911 147.359 30.3407 147.225 28.1574V11.7974H153.305Z" fill="white"/>
<path d="M167.415 16.7473V33.0073C167.373 33.4364 167.421 33.8696 167.555 34.2793C167.689 34.689 167.907 35.0663 168.195 35.3873C168.957 35.9442 169.897 36.2006 170.835 36.1073H174.565V41.1673H169.765C167.504 41.3204 165.265 40.637 163.475 39.2473C162.015 37.9673 161.285 35.8873 161.285 33.0073V16.7473H157.825V11.7973H161.285V4.4873H167.415V11.7973H174.565V16.7473H167.415Z" fill="white"/>
<path d="M205.795 11.7974V41.1674H199.715V37.7074C198.707 38.9437 197.418 39.9209 195.955 40.5574C194.401 41.2353 192.721 41.5761 191.025 41.5574C188.868 41.5936 186.736 41.099 184.815 40.1174C182.982 39.1561 181.478 37.6692 180.495 35.8474C179.395 33.7465 178.854 31.3978 178.925 29.0274V11.7974H184.925V28.1574C184.795 30.3402 185.512 32.4891 186.925 34.1574C187.62 34.8718 188.459 35.4296 189.387 35.7935C190.315 36.1573 191.31 36.3189 192.305 36.2674C193.305 36.3187 194.304 36.1572 195.237 35.7934C196.169 35.4297 197.014 34.872 197.715 34.1574C199.137 32.4938 199.855 30.3414 199.715 28.1574V11.7974H205.795Z" fill="white"/>
<path d="M222.445 12.5677C224.043 11.7036 225.839 11.2726 227.655 11.3177V17.6277H226.155C225.177 17.5556 224.194 17.6785 223.264 17.9892C222.333 18.2999 221.474 18.7922 220.735 19.4377C219.515 20.6477 218.895 22.7377 218.895 25.7277V41.1677H212.825V11.7977H218.895V16.0577C219.748 14.5997 220.973 13.3951 222.445 12.5677Z" fill="white"/>
<path d="M259.035 28.7473H236.585C236.677 30.901 237.615 32.9315 239.195 34.3973C240.771 35.8194 242.833 36.5819 244.955 36.5273C246.389 36.6232 247.819 36.2828 249.056 35.5511C250.293 34.8193 251.279 33.7303 251.885 32.4273H258.445C257.588 35.0872 255.911 37.4078 253.655 39.0573C251.116 40.8463 248.059 41.7494 244.955 41.6273C242.32 41.6708 239.719 41.0189 237.415 39.7373C235.208 38.4884 233.398 36.6407 232.195 34.4073C230.885 31.9485 230.23 29.193 230.295 26.4073C230.234 23.6292 230.866 20.8795 232.135 18.4073C233.307 16.1732 235.103 14.3282 237.305 13.0973C239.652 11.8259 242.287 11.185 244.955 11.2373C247.54 11.1889 250.094 11.8126 252.365 13.0473C254.507 14.2252 256.266 15.9915 257.435 18.1373C258.677 20.4534 259.3 23.0502 259.245 25.6773C259.257 26.7046 259.187 27.7312 259.035 28.7473ZM252.905 23.8373C252.925 22.8193 252.72 21.8095 252.306 20.8796C251.891 19.9498 251.276 19.1227 250.505 18.4573C248.882 17.0971 246.812 16.3848 244.695 16.4573C242.71 16.4154 240.783 17.1305 239.305 18.4573C237.786 19.8601 236.841 21.7775 236.655 23.8373H252.905Z" fill="white"/>
<path d="M123.295 73.6274L132.785 88.5074H125.915L119.565 78.5074L113.565 88.5074H107.255L116.745 74.0574L107.255 59.0874H114.125L120.475 69.0874L126.475 59.0874H132.815L123.295 73.6274Z" fill="white"/>
<path d="M136.165 65.7774C137.32 63.5603 139.086 61.7209 141.255 60.4774C143.788 59.1447 146.629 58.5039 149.489 58.6198C152.349 58.7357 155.128 59.6041 157.545 61.1374C159.925 62.9121 161.598 65.4743 162.265 68.3674H155.705C155.231 66.9903 154.335 65.7973 153.145 64.9574C151.832 64.0962 150.284 63.6662 148.715 63.7274C147.589 63.6825 146.467 63.8973 145.437 64.3551C144.407 64.8128 143.496 65.5014 142.775 66.3674C141.295 68.1274 140.565 70.5874 140.565 73.7474C140.565 76.9074 141.295 79.3874 142.775 81.1574C143.492 82.0307 144.401 82.7262 145.432 83.1894C146.462 83.6526 147.586 83.871 148.715 83.8274C152.235 83.8274 154.568 82.2807 155.715 79.1874H162.275C161.514 82.0297 159.824 84.5359 157.475 86.3074C154.93 88.1297 151.853 89.058 148.725 88.9474C146.113 88.9978 143.535 88.3413 141.265 87.0474C139.097 85.7896 137.332 83.941 136.175 81.7174C134.964 79.235 134.335 76.5094 134.335 73.7474C134.335 70.9854 134.964 68.2598 136.175 65.7774H136.165Z" fill="white"/>
<path d="M188.565 60.0473C190.341 61.0282 191.786 62.5143 192.715 64.3173C193.786 66.4273 194.309 68.7725 194.235 71.1373V88.4673H188.235V72.0473C188.361 69.8651 187.645 67.7177 186.235 66.0473C185.539 65.3316 184.698 64.773 183.769 64.4091C182.839 64.0452 181.842 63.8843 180.845 63.9373C179.846 63.8873 178.847 64.0494 177.915 64.4131C176.982 64.7767 176.137 65.3337 175.435 66.0473C174.018 67.7135 173.301 69.864 173.435 72.0473V88.4673H167.355V49.0073H173.435V62.4973C174.497 61.2402 175.845 60.256 177.365 59.6273C179.013 58.9454 180.782 58.6052 182.565 58.6273C184.654 58.5845 186.718 59.0731 188.565 60.0473Z" fill="white"/>
<path d="M200.815 65.8075C201.956 63.6167 203.681 61.7844 205.799 60.5136C207.917 59.2428 210.345 58.5831 212.815 58.6075C214.896 58.5659 216.956 59.0328 218.815 59.9675C220.423 60.7829 221.832 61.9399 222.945 63.3575V59.0875H229.075V88.4675H222.945V84.0875C221.827 85.5521 220.386 86.7394 218.735 87.5575C216.694 88.558 214.435 89.031 212.164 88.9332C209.893 88.8353 207.683 88.1698 205.735 86.9975C203.603 85.6751 201.874 83.7937 200.735 81.5575C199.478 79.1134 198.846 76.3957 198.895 73.6475C198.864 70.9141 199.524 68.2172 200.815 65.8075ZM221.815 68.4675C221.052 67.0539 219.918 65.8751 218.535 65.0575C217.532 64.4753 216.422 64.0994 215.272 63.9518C214.121 63.8043 212.953 63.888 211.835 64.1982C210.717 64.5084 209.672 65.0388 208.762 65.7582C207.852 66.4776 207.095 67.3715 206.535 68.3875C205.662 70.0002 205.227 71.8141 205.275 73.6475C205.235 75.5024 205.669 77.3369 206.535 78.9775C207.289 80.4253 208.432 81.634 209.835 82.4675C211.15 83.2526 212.654 83.6673 214.185 83.6675C215.72 83.6745 217.229 83.2705 218.555 82.4975C219.942 81.6714 221.076 80.4818 221.835 79.0575C222.697 77.4229 223.128 75.5951 223.085 73.7475C223.106 71.9034 222.651 70.085 221.765 68.4675H221.815Z" fill="white"/>
<path d="M257.205 60.0475C259.034 61.0045 260.529 62.4933 261.495 64.3175C262.58 66.4231 263.114 68.7697 263.045 71.1375V88.4675H257.045V72.0475C257.175 69.8647 256.459 67.7158 255.045 66.0475C254.353 65.3228 253.514 64.7549 252.585 64.3823C251.655 64.0097 250.656 63.8409 249.655 63.8875C248.655 63.8362 247.656 63.9977 246.723 64.3615C245.791 64.7252 244.946 65.2829 244.245 65.9975C242.823 67.6611 242.106 69.8135 242.245 71.9975V88.4175H236.165V59.0875H242.245V62.4475C243.273 61.2145 244.584 60.2472 246.065 59.6275C247.621 58.9568 249.3 58.6162 250.995 58.6275C253.15 58.5852 255.283 59.0728 257.205 60.0475Z" fill="white"/>
<path d="M287.655 59.9673C289.273 60.7667 290.686 61.9264 291.785 63.3573V59.0873H297.915V88.9473C297.959 91.4592 297.371 93.9418 296.205 96.1673C295.082 98.2773 293.369 100.015 291.275 101.167C288.91 102.431 286.256 103.058 283.575 102.987C280.056 103.123 276.584 102.143 273.655 100.187C272.395 99.3289 271.34 98.2024 270.565 96.8886C269.791 95.5747 269.316 94.106 269.175 92.5873H275.175C275.668 94.1601 276.741 95.4864 278.175 96.2973C279.808 97.2721 281.685 97.7613 283.585 97.7073C284.675 97.7538 285.763 97.5793 286.784 97.1943C287.805 96.8094 288.737 96.2219 289.525 95.4673C291.039 93.9807 291.795 91.814 291.795 88.9673V84.0573C290.595 85.5976 289.056 86.8401 287.297 87.6883C285.539 88.5364 283.608 88.9673 281.655 88.9473C279.185 88.9672 276.759 88.2914 274.655 86.9973C272.525 85.6722 270.797 83.7914 269.655 81.5573C268.402 79.1115 267.771 76.395 267.815 73.6473C267.765 70.9214 268.397 68.2261 269.655 65.8073C270.799 63.6203 272.525 61.7921 274.643 60.5249C276.76 59.2577 279.188 58.601 281.655 58.6273C283.734 58.5879 285.791 59.0474 287.655 59.9673ZM290.525 68.4673C289.769 67.052 288.638 65.8723 287.255 65.0573C286.252 64.4765 285.142 64.1017 283.992 63.9548C282.841 63.808 281.673 63.8921 280.556 64.2022C279.439 64.5123 278.394 65.0421 277.484 65.7608C276.574 66.4794 275.816 67.3723 275.255 68.3873C274.39 70.0028 273.959 71.8153 274.005 73.6473C273.966 75.501 274.396 77.3344 275.255 78.9773C276.016 80.4236 277.161 81.6315 278.565 82.4673C279.877 83.2511 281.377 83.6658 282.905 83.6673C284.444 83.6747 285.956 83.2707 287.285 82.4973C288.671 81.6734 289.803 80.4831 290.555 79.0573C291.425 77.4252 291.859 75.5963 291.815 73.7473C291.862 71.9088 291.432 70.0896 290.565 68.4673H290.525Z" fill="white"/>
<path d="M331.655 76.0373H309.245C309.284 77.1016 309.532 78.1479 309.976 79.116C310.42 80.0842 311.051 80.9551 311.833 81.6789C312.614 82.4027 313.531 82.965 314.53 83.3337C315.529 83.7023 316.591 83.8701 317.655 83.8273C319.091 83.9237 320.521 83.5824 321.759 82.8486C322.996 82.1148 323.982 81.023 324.585 79.7173H331.145C330.28 82.3868 328.589 84.7122 326.315 86.3573C323.791 88.1469 320.748 89.0569 317.655 88.9473C315.018 88.9924 312.416 88.3368 310.115 87.0473C307.901 85.8043 306.086 83.9552 304.885 81.7173C303.581 79.2562 302.931 76.5017 302.995 73.7173C302.929 70.9386 303.562 68.1878 304.835 65.7173C306.006 63.4847 307.803 61.6427 310.005 60.4173C312.356 59.1658 314.993 58.5488 317.655 58.6273C320.24 58.5847 322.792 59.208 325.065 60.4373C327.207 61.6187 328.967 63.3884 330.135 65.5373C331.372 67.8551 331.995 70.4507 331.945 73.0773C331.926 74.0699 331.829 75.0596 331.655 76.0373ZM325.515 71.1373C325.539 70.1196 325.337 69.1094 324.924 68.1792C324.511 67.2489 323.896 66.4218 323.125 65.7573C321.5 64.393 319.426 63.6804 317.305 63.7573C315.323 63.7179 313.4 64.4328 311.925 65.7573C310.396 67.1677 309.445 69.0955 309.255 71.1673L325.515 71.1373Z" fill="white"/>
<defs>
<linearGradient id="paint0_linear" x1="58.3096" y1="50.9189" x2="74.5707" y2="94.4979" gradientUnits="userSpaceOnUse">
<stop offset="0.0278679" stop-color="#004123"/>
<stop offset="0.148383" stop-color="#004B28"/>
<stop offset="0.21" stop-color="#00582F"/>
<stop offset="0.28" stop-color="#006636"/>
<stop offset="0.356997" stop-color="#006F3B"/>
<stop offset="0.462577" stop-color="#007B42"/>
<stop offset="0.599136" stop-color="#008045"/>
</linearGradient>
<linearGradient id="paint1_linear" x1="51.0369" y1="30.3052" x2="110.83" y2="8.98115" gradientUnits="userSpaceOnUse">
<stop offset="0.0278679" stop-color="#004525"/>
<stop offset="0.148383" stop-color="#004B28"/>
<stop offset="0.21" stop-color="#00582F"/>
<stop offset="0.28" stop-color="#006636"/>
<stop offset="0.356997" stop-color="#006F3B"/>
<stop offset="0.462577" stop-color="#007B42"/>
<stop offset="0.599136" stop-color="#008045"/>
</linearGradient>
</defs>
</svg>
